<mxfile host="app.diagrams.net" modified="2024-06-24T20:18:35.885Z" agent="Mozilla/5.0 (Macintosh; Intel Mac OS X 10_15_7) AppleWebKit/537.36 (KHTML, like Gecko) Chrome/126.0.0.0 Safari/537.36" etag="nc51WlBttPwiKufR9o6W" version="24.6.2" type="github">
  <diagram name="Page-1" id="oE9jyObkh7WN1pwfZdo9">
    <mxGraphModel dx="1050" dy="722" grid="1" gridSize="10" guides="1" tooltips="1" connect="1" arrows="1" fold="1" page="1" pageScale="1" pageWidth="850" pageHeight="1100" math="0" shadow="0">
      <root>
        <mxCell id="0" />
        <mxCell id="1" parent="0" />
        <mxCell id="xft0MIJ-hhTcVg5dRVAN-1" value="Start" style="whiteSpace=wrap;strokeWidth=2;" vertex="1" parent="1">
          <mxGeometry x="245" y="20" width="50" height="34" as="geometry" />
        </mxCell>
        <mxCell id="xft0MIJ-hhTcVg5dRVAN-2" value="Disable SSL warnings" style="whiteSpace=wrap;strokeWidth=2;" vertex="1" parent="1">
          <mxGeometry x="189" y="104" width="162" height="34" as="geometry" />
        </mxCell>
        <mxCell id="xft0MIJ-hhTcVg5dRVAN-3" value="Configuration: ndb_ip and credentials" style="whiteSpace=wrap;strokeWidth=2;" vertex="1" parent="1">
          <mxGeometry x="127" y="188" width="287" height="34" as="geometry" />
        </mxCell>
        <mxCell id="xft0MIJ-hhTcVg5dRVAN-5" value="Set API URLs: base_url and db_servers_url" style="whiteSpace=wrap;strokeWidth=2;" vertex="1" parent="1">
          <mxGeometry x="114" y="280" width="316" height="34" as="geometry" />
        </mxCell>
        <mxCell id="xft0MIJ-hhTcVg5dRVAN-6" value="Set headers" style="whiteSpace=wrap;strokeWidth=2;" vertex="1" parent="1">
          <mxGeometry x="223" y="364" width="99" height="34" as="geometry" />
        </mxCell>
        <mxCell id="xft0MIJ-hhTcVg5dRVAN-7" value="Send GET request to db_servers_url" style="whiteSpace=wrap;strokeWidth=2;" vertex="1" parent="1">
          <mxGeometry x="137" y="448" width="271" height="34" as="geometry" />
        </mxCell>
        <mxCell id="xft0MIJ-hhTcVg5dRVAN-8" value="Parse JSON response to db_servers" style="whiteSpace=wrap;strokeWidth=2;" vertex="1" parent="1">
          <mxGeometry x="141" y="532" width="263" height="34" as="geometry" />
        </mxCell>
        <mxCell id="xft0MIJ-hhTcVg5dRVAN-9" value="Check each server for software profile" style="rhombus;strokeWidth=2;whiteSpace=wrap;" vertex="1" parent="1">
          <mxGeometry x="110" y="615" width="325" height="325" as="geometry" />
        </mxCell>
        <mxCell id="xft0MIJ-hhTcVg5dRVAN-10" value="Server has profile?" style="whiteSpace=wrap;strokeWidth=2;" vertex="1" parent="1">
          <mxGeometry x="449" y="990" width="147" height="34" as="geometry" />
        </mxCell>
        <mxCell id="xft0MIJ-hhTcVg5dRVAN-11" value="Add server to servers_with_profiles" style="whiteSpace=wrap;strokeWidth=2;" vertex="1" parent="1">
          <mxGeometry x="55" y="1168" width="269" height="34" as="geometry" />
        </mxCell>
        <mxCell id="xft0MIJ-hhTcVg5dRVAN-12" value="Add server to servers_without_profiles" style="whiteSpace=wrap;strokeWidth=2;" vertex="1" parent="1">
          <mxGeometry x="374" y="1168" width="293" height="34" as="geometry" />
        </mxCell>
        <mxCell id="xft0MIJ-hhTcVg5dRVAN-13" value="Next server" style="whiteSpace=wrap;strokeWidth=2;" vertex="1" parent="1">
          <mxGeometry x="308" y="1177" width="97" height="34" as="geometry" />
        </mxCell>
        <mxCell id="xft0MIJ-hhTcVg5dRVAN-14" value="All servers checked?" style="rhombus;strokeWidth=2;whiteSpace=wrap;" vertex="1" parent="1">
          <mxGeometry x="260" y="1260" width="193" height="193" as="geometry" />
        </mxCell>
        <mxCell id="xft0MIJ-hhTcVg5dRVAN-15" value="Sort servers_with_profiles by name" style="whiteSpace=wrap;strokeWidth=2;" vertex="1" parent="1">
          <mxGeometry x="223" y="1522" width="267" height="34" as="geometry" />
        </mxCell>
        <mxCell id="xft0MIJ-hhTcVg5dRVAN-16" value="Sort servers_without_profiles by name" style="whiteSpace=wrap;strokeWidth=2;" vertex="1" parent="1">
          <mxGeometry x="211" y="1606" width="291" height="34" as="geometry" />
        </mxCell>
        <mxCell id="xft0MIJ-hhTcVg5dRVAN-17" value="Output servers_with_profiles" style="whiteSpace=wrap;strokeWidth=2;" vertex="1" parent="1">
          <mxGeometry x="246" y="1690" width="223" height="34" as="geometry" />
        </mxCell>
        <mxCell id="xft0MIJ-hhTcVg5dRVAN-18" value="Output servers_without_profiles" style="whiteSpace=wrap;strokeWidth=2;" vertex="1" parent="1">
          <mxGeometry x="234" y="1774" width="246" height="34" as="geometry" />
        </mxCell>
        <mxCell id="xft0MIJ-hhTcVg5dRVAN-19" value="End" style="whiteSpace=wrap;strokeWidth=2;" vertex="1" parent="1">
          <mxGeometry x="336" y="1857" width="41" height="34" as="geometry" />
        </mxCell>
        <mxCell id="xft0MIJ-hhTcVg5dRVAN-20" value="" style="curved=1;startArrow=none;endArrow=block;exitX=0.5;exitY=0.99;entryX=0.5;entryY=-0.01;rounded=0;" edge="1" parent="1" source="xft0MIJ-hhTcVg5dRVAN-1" target="xft0MIJ-hhTcVg5dRVAN-2">
          <mxGeometry relative="1" as="geometry">
            <Array as="points" />
          </mxGeometry>
        </mxCell>
        <mxCell id="xft0MIJ-hhTcVg5dRVAN-21" value="" style="curved=1;startArrow=none;endArrow=block;exitX=0.5;exitY=0.99;entryX=0.5;entryY=-0.01;rounded=0;" edge="1" parent="1" source="xft0MIJ-hhTcVg5dRVAN-2" target="xft0MIJ-hhTcVg5dRVAN-3">
          <mxGeometry relative="1" as="geometry">
            <Array as="points" />
          </mxGeometry>
        </mxCell>
        <mxCell id="xft0MIJ-hhTcVg5dRVAN-22" value="" style="curved=1;startArrow=none;endArrow=block;exitX=0.5;exitY=0.98;entryX=0.5;entryY=0.01;rounded=0;" edge="1" parent="1" source="xft0MIJ-hhTcVg5dRVAN-3">
          <mxGeometry relative="1" as="geometry">
            <Array as="points" />
            <mxPoint x="270" y="271" as="targetPoint" />
          </mxGeometry>
        </mxCell>
        <mxCell id="xft0MIJ-hhTcVg5dRVAN-24" value="" style="curved=1;startArrow=none;endArrow=block;exitX=0.5;exitY=1;entryX=0.5;entryY=0;rounded=0;" edge="1" parent="1" source="xft0MIJ-hhTcVg5dRVAN-5" target="xft0MIJ-hhTcVg5dRVAN-6">
          <mxGeometry relative="1" as="geometry">
            <Array as="points" />
          </mxGeometry>
        </mxCell>
        <mxCell id="xft0MIJ-hhTcVg5dRVAN-25" value="" style="curved=1;startArrow=none;endArrow=block;exitX=0.5;exitY=0.99;entryX=0.5;entryY=-0.01;rounded=0;" edge="1" parent="1" source="xft0MIJ-hhTcVg5dRVAN-6" target="xft0MIJ-hhTcVg5dRVAN-7">
          <mxGeometry relative="1" as="geometry">
            <Array as="points" />
          </mxGeometry>
        </mxCell>
        <mxCell id="xft0MIJ-hhTcVg5dRVAN-26" value="" style="curved=1;startArrow=none;endArrow=block;exitX=0.5;exitY=0.99;entryX=0.5;entryY=-0.01;rounded=0;" edge="1" parent="1" source="xft0MIJ-hhTcVg5dRVAN-7" target="xft0MIJ-hhTcVg5dRVAN-8">
          <mxGeometry relative="1" as="geometry">
            <Array as="points" />
          </mxGeometry>
        </mxCell>
        <mxCell id="xft0MIJ-hhTcVg5dRVAN-27" value="" style="curved=1;startArrow=none;endArrow=block;exitX=0.5;exitY=0.98;entryX=0.5;entryY=0;rounded=0;" edge="1" parent="1" source="xft0MIJ-hhTcVg5dRVAN-8" target="xft0MIJ-hhTcVg5dRVAN-9">
          <mxGeometry relative="1" as="geometry">
            <Array as="points" />
          </mxGeometry>
        </mxCell>
        <mxCell id="xft0MIJ-hhTcVg5dRVAN-28" value="" style="curved=1;startArrow=none;endArrow=block;exitX=1;exitY=0.88;entryX=0.5;entryY=0.01;rounded=0;" edge="1" parent="1" source="xft0MIJ-hhTcVg5dRVAN-9" target="xft0MIJ-hhTcVg5dRVAN-10">
          <mxGeometry relative="1" as="geometry">
            <Array as="points">
              <mxPoint x="522" y="965" />
            </Array>
          </mxGeometry>
        </mxCell>
        <mxCell id="xft0MIJ-hhTcVg5dRVAN-29" value="Yes" style="curved=1;startArrow=none;endArrow=block;exitX=0;exitY=0.84;entryX=0.5;entryY=0;rounded=0;" edge="1" parent="1" source="xft0MIJ-hhTcVg5dRVAN-10">
          <mxGeometry relative="1" as="geometry">
            <Array as="points">
              <mxPoint x="191" y="1058" />
            </Array>
            <mxPoint x="191.5" y="1093" as="targetPoint" />
          </mxGeometry>
        </mxCell>
        <mxCell id="xft0MIJ-hhTcVg5dRVAN-30" value="No" style="curved=1;startArrow=none;endArrow=block;exitX=0.5;exitY=1;entryX=0.5;entryY=0;rounded=0;" edge="1" parent="1" source="xft0MIJ-hhTcVg5dRVAN-10">
          <mxGeometry relative="1" as="geometry">
            <Array as="points" />
            <mxPoint x="522.5" y="1093" as="targetPoint" />
          </mxGeometry>
        </mxCell>
        <mxCell id="xft0MIJ-hhTcVg5dRVAN-31" value="" style="curved=1;startArrow=none;endArrow=block;exitX=0;exitY=0.88;entryX=0;entryY=0.31;rounded=0;" edge="1" parent="1" source="xft0MIJ-hhTcVg5dRVAN-9" target="xft0MIJ-hhTcVg5dRVAN-13">
          <mxGeometry relative="1" as="geometry">
            <Array as="points">
              <mxPoint x="20" y="1040" />
              <mxPoint x="20" y="1227" />
            </Array>
          </mxGeometry>
        </mxCell>
        <mxCell id="xft0MIJ-hhTcVg5dRVAN-32" value="" style="curved=1;startArrow=none;endArrow=block;exitX=1.01;exitY=0.31;entryX=0.91;entryY=1;rounded=0;" edge="1" parent="1" source="xft0MIJ-hhTcVg5dRVAN-13" target="xft0MIJ-hhTcVg5dRVAN-10">
          <mxGeometry relative="1" as="geometry">
            <Array as="points">
              <mxPoint x="702" y="1227" />
              <mxPoint x="702" y="1133" />
            </Array>
          </mxGeometry>
        </mxCell>
        <mxCell id="xft0MIJ-hhTcVg5dRVAN-33" value="" style="curved=1;startArrow=none;endArrow=block;exitX=0.5;exitY=0.99;entryX=0;entryY=0.12;rounded=0;" edge="1" parent="1" target="xft0MIJ-hhTcVg5dRVAN-13">
          <mxGeometry relative="1" as="geometry">
            <Array as="points">
              <mxPoint x="191" y="1152" />
            </Array>
            <mxPoint x="191.5" y="1127" as="sourcePoint" />
          </mxGeometry>
        </mxCell>
        <mxCell id="xft0MIJ-hhTcVg5dRVAN-34" value="" style="curved=1;startArrow=none;endArrow=block;exitX=0.5;exitY=0.99;entryX=1.01;entryY=0.12;rounded=0;" edge="1" parent="1" target="xft0MIJ-hhTcVg5dRVAN-13">
          <mxGeometry relative="1" as="geometry">
            <Array as="points">
              <mxPoint x="522" y="1152" />
            </Array>
            <mxPoint x="522.5" y="1127" as="sourcePoint" />
          </mxGeometry>
        </mxCell>
        <mxCell id="xft0MIJ-hhTcVg5dRVAN-35" value="" style="curved=1;startArrow=none;endArrow=block;exitX=0.5;exitY=0.98;entryX=0.5;entryY=0;rounded=0;" edge="1" parent="1" source="xft0MIJ-hhTcVg5dRVAN-13" target="xft0MIJ-hhTcVg5dRVAN-14">
          <mxGeometry relative="1" as="geometry">
            <Array as="points" />
          </mxGeometry>
        </mxCell>
        <mxCell id="xft0MIJ-hhTcVg5dRVAN-36" value="Yes" style="curved=1;startArrow=none;endArrow=block;exitX=0.5;exitY=1;entryX=0.5;entryY=0;rounded=0;" edge="1" parent="1" source="xft0MIJ-hhTcVg5dRVAN-14" target="xft0MIJ-hhTcVg5dRVAN-15">
          <mxGeometry relative="1" as="geometry">
            <Array as="points" />
          </mxGeometry>
        </mxCell>
        <mxCell id="xft0MIJ-hhTcVg5dRVAN-37" value="" style="curved=1;startArrow=none;endArrow=block;exitX=0.5;exitY=1;entryX=0.5;entryY=0;rounded=0;" edge="1" parent="1" source="xft0MIJ-hhTcVg5dRVAN-15" target="xft0MIJ-hhTcVg5dRVAN-16">
          <mxGeometry relative="1" as="geometry">
            <Array as="points" />
          </mxGeometry>
        </mxCell>
        <mxCell id="xft0MIJ-hhTcVg5dRVAN-38" value="" style="curved=1;startArrow=none;endArrow=block;exitX=0.5;exitY=0.99;entryX=0.5;entryY=-0.01;rounded=0;" edge="1" parent="1" source="xft0MIJ-hhTcVg5dRVAN-16" target="xft0MIJ-hhTcVg5dRVAN-17">
          <mxGeometry relative="1" as="geometry">
            <Array as="points" />
          </mxGeometry>
        </mxCell>
        <mxCell id="xft0MIJ-hhTcVg5dRVAN-39" value="" style="curved=1;startArrow=none;endArrow=block;exitX=0.5;exitY=0.99;entryX=0.5;entryY=-0.01;rounded=0;" edge="1" parent="1" source="xft0MIJ-hhTcVg5dRVAN-17" target="xft0MIJ-hhTcVg5dRVAN-18">
          <mxGeometry relative="1" as="geometry">
            <Array as="points" />
          </mxGeometry>
        </mxCell>
        <mxCell id="xft0MIJ-hhTcVg5dRVAN-40" value="" style="curved=1;startArrow=none;endArrow=block;exitX=0.5;exitY=0.98;entryX=0.51;entryY=0.01;rounded=0;" edge="1" parent="1" source="xft0MIJ-hhTcVg5dRVAN-18" target="xft0MIJ-hhTcVg5dRVAN-19">
          <mxGeometry relative="1" as="geometry">
            <Array as="points" />
          </mxGeometry>
        </mxCell>
      </root>
    </mxGraphModel>
  </diagram>
</mxfile>
